<svg width="383" height="123" viewBox="0 0 383 123" fill="none" xmlns="http://www.w3.org/2000/svg">
<g id="Components">
<g id="Frame 183">
<g id="Frame 178">
<g id="Style">
<g id="RI Wordmark Garnet_Dust">
<g id="Group">
<path id="Vector" d="M4.8894 2.51501H28.1571C34.6279 2.51501 39.6428 4.33225 42.9912 7.67557C45.8275 10.5119 47.3536 14.5078 47.3536 19.3069V19.4525C47.3536 27.6702 42.9209 32.8308 36.4451 35.2303L48.8797 53.4078H35.7925L24.8841 37.1229H16.089V53.4078H4.8894V2.51501ZM27.4242 27.2335C32.8759 27.2335 36.0034 24.3269 36.0034 20.0348V19.8892C36.0034 15.0901 32.66 12.6203 27.2083 12.6203H16.084V27.2335H27.4242Z" fill="#652323"/>
<path id="Vector_2" d="M59.5219 17.3591C60.782 14.1263 62.5741 11.3753 64.8983 9.10627C67.2176 6.83221 69.9836 5.07019 73.1914 3.80515C76.3992 2.54513 79.9433 1.91261 83.8338 1.91261C87.7243 1.91261 91.2784 2.54513 94.5113 3.80515C97.7442 5.07019 100.52 6.83723 102.839 9.10627C105.159 11.3803 106.966 14.1313 108.256 17.3591C109.541 20.592 110.189 24.1763 110.189 28.112C110.189 32.0477 109.546 35.637 108.256 38.8648C106.966 42.0977 105.164 44.8487 102.839 47.1177C100.515 49.3918 97.7392 51.1588 94.5113 52.4188C91.2784 53.6788 87.7193 54.3114 83.8338 54.3114C79.9483 54.3114 76.3992 53.6788 73.1914 52.4188C69.9836 51.1588 67.2176 49.3867 64.8983 47.1177C62.5741 44.8436 60.782 42.0927 59.5219 38.8648C58.2569 35.637 57.6294 32.0477 57.6294 28.112C57.6294 24.1763 58.2619 20.587 59.5219 17.3591ZM71.3741 35.1952C72.1071 37.2383 73.091 38.9451 74.3259 40.3056C75.5608 41.671 77.0016 42.7051 78.6431 43.4129C80.2846 44.1208 82.0115 44.4722 83.8288 44.4722C85.646 44.4722 87.4532 44.1208 89.0897 43.4129C90.7313 42.7051 92.167 41.671 93.4069 40.3056C94.6418 38.9401 95.6258 37.2383 96.3587 35.1952C97.0916 33.1521 97.4581 30.7927 97.4581 28.112C97.4581 25.4313 97.0916 23.0769 96.3587 21.0288C95.6258 18.9856 94.6418 17.2788 93.4069 15.9184C92.167 14.553 90.7313 13.5188 89.0897 12.816C87.4482 12.1082 85.6962 11.7568 83.8288 11.7568C81.9613 11.7568 80.2796 12.1132 78.6431 12.816C77.0016 13.5239 75.5608 14.558 74.3259 15.9184C73.086 17.2838 72.102 18.9856 71.3741 21.0288C70.6412 23.0719 70.2748 25.4363 70.2748 28.112C70.2748 30.7876 70.6412 33.147 71.3741 35.1952Z" fill="#652323"/>
<path id="Vector_3" d="M133.286 2.82124H146.463L165.625 53.4128H152.598L149.566 44.4019H130.179L127.147 53.4128H114.12L133.286 2.82124ZM133.437 34.7032H146.313L139.802 15.4666L133.442 34.7032H133.437Z" fill="#652323"/>
<path id="Vector_4" d="M211.447 42.8808V53.4078H175.248V2.82124H187.216V42.8858H211.452L211.447 42.8808Z" fill="#652323"/>
<path id="Vector_5" d="M233.109 42.9561C235.026 44.1157 237.401 44.6981 240.227 44.6981C241.286 44.6981 242.36 44.6127 243.445 44.432C244.529 44.2563 245.503 43.9551 246.361 43.5234C247.22 43.0967 247.913 42.5395 248.445 41.8567C248.977 41.174 249.238 40.3558 249.238 39.3969C249.238 37.6299 248.379 36.2645 246.663 35.3056C244.946 34.3468 242.727 33.5888 239.996 33.0316L233.862 31.8218C231.788 31.4202 229.82 30.8529 227.953 30.12C226.086 29.3871 224.454 28.4533 223.069 27.3188C221.678 26.1843 220.569 24.8189 219.735 23.2275C218.902 21.6362 218.485 19.7587 218.485 17.585C218.485 14.8592 219.128 12.5098 220.418 10.542C221.703 8.57415 223.37 6.94265 225.418 5.65753C227.461 4.37241 229.76 3.42363 232.31 2.81621C234.861 2.20879 237.396 1.90759 239.921 1.90759C241.989 1.90759 244.012 2.10839 245.98 2.51501C247.948 2.92163 249.79 3.56419 251.507 4.44771C253.224 5.33123 254.75 6.46575 256.09 7.85629C257.425 9.24683 258.5 10.9235 259.308 12.8913L248.48 16.827C247.772 15.1102 246.597 13.8 244.956 12.8913C243.314 11.9827 241.281 11.5259 238.861 11.5259C236.442 11.5259 234.61 11.9426 233.068 12.7759C231.527 13.6092 230.759 14.809 230.759 16.3752C230.759 17.6905 231.276 18.7848 232.31 19.6683C233.344 20.5519 234.745 21.1693 236.512 21.5257L243.329 22.8912C245.397 23.2978 247.506 23.7998 249.654 24.4072C251.798 25.0146 253.746 25.858 255.488 26.9423C257.23 28.0266 258.67 29.4172 259.805 31.1089C260.939 32.8007 261.507 34.9593 261.507 37.5847C261.507 40.2102 260.889 42.6449 259.649 44.7432C258.409 46.8366 256.783 48.5936 254.765 50.0042C252.747 51.4198 250.458 52.4941 247.913 53.222C245.362 53.9549 242.772 54.3214 240.152 54.3214C234.594 54.3214 229.951 53.212 226.216 50.9881C222.481 48.7693 219.831 45.6117 218.264 41.5204L229.168 37.5797C229.876 40.0044 231.186 41.7965 233.104 42.9561H233.109Z" fill="#652323"/>
<path id="Vector_6" d="M271.577 17.3591C272.837 14.1263 274.629 11.3753 276.953 9.10627C279.273 6.83221 282.039 5.07019 285.246 3.80515C288.454 2.54513 291.998 1.91261 295.889 1.91261C299.779 1.91261 303.333 2.54513 306.566 3.80515C309.799 5.07019 312.575 6.83723 314.894 9.10627C317.214 11.3803 319.021 14.1313 320.311 17.3591C321.596 20.592 322.244 24.1763 322.244 28.112C322.244 32.0477 321.601 35.637 320.311 38.8648C319.021 42.0977 317.219 44.8487 314.894 47.1177C312.57 49.3918 309.794 51.1588 306.566 52.4188C303.333 53.6788 299.774 54.3114 295.889 54.3114C292.003 54.3114 288.454 53.6788 285.246 52.4188C282.039 51.1588 279.273 49.3867 276.953 47.1177C274.629 44.8436 272.837 42.0927 271.577 38.8648C270.312 35.637 269.684 32.0477 269.684 28.112C269.684 24.1763 270.317 20.587 271.577 17.3591ZM283.429 35.1952C284.162 37.2383 285.146 38.9451 286.381 40.3056C287.616 41.671 289.057 42.7051 290.698 43.4129C292.34 44.1208 294.066 44.4722 295.884 44.4722C297.701 44.4722 299.508 44.1208 301.145 43.4129C302.786 42.7051 304.222 41.671 305.462 40.3056C306.697 38.9401 307.681 37.2383 308.414 35.1952C309.147 33.1521 309.513 30.7927 309.513 28.112C309.513 25.4313 309.147 23.0769 308.414 21.0288C307.681 18.9856 306.697 17.2788 305.462 15.9184C304.222 14.553 302.786 13.5188 301.145 12.816C299.503 12.1082 297.751 11.7568 295.884 11.7568C294.016 11.7568 292.335 12.1132 290.698 12.816C289.057 13.5239 287.616 14.558 286.381 15.9184C285.141 17.2838 284.157 18.9856 283.429 21.0288C282.696 23.0719 282.33 25.4363 282.33 28.112C282.33 30.7876 282.696 33.147 283.429 35.1952Z" fill="#652323"/>
<path id="Vector_7" d="M347.233 2.82124L366.771 38.8698V2.82124H378.357V53.4128H363.061L343.524 17.3642V53.4128H332.013V2.82124H347.233Z" fill="#652323"/>
</g>
<path id="Vector_8" d="M1.39551 84.4765H7.07313V115.892H1.39551V120.365H18.4334V115.892H12.7558V84.4765H18.4334V80.0037H1.39551V84.4765ZM62.9005 114.32L44.5323 80.0037H36.1339V120.365H41.8115V85.8671L60.2399 120.365H68.5781V80.0037H62.9005V114.32ZM82.8952 84.8982H96.3086V120.365H101.986V84.8982H115.4V80.0037H82.8952V84.8982ZM129.717 120.365H157.086V115.47H135.394V102.057H151.403V97.1621H135.394V84.8982H157.086V80.0037H129.717V120.365ZM220.559 120.365H247.928V115.47H226.236V102.057H242.245V97.1621H226.236V84.8982H247.928V80.0037H220.559V120.365ZM288.283 100.485C286.913 99.6018 285.362 98.894 283.63 98.3719C281.898 97.8498 280.146 97.403 278.374 97.0416C277.003 96.7605 275.693 96.4593 274.448 96.133C273.198 95.8117 272.094 95.4101 271.125 94.9232C270.156 94.4412 269.393 93.8338 268.831 93.1109C268.264 92.3881 267.982 91.4594 267.982 90.3299C267.982 89.2807 268.223 88.367 268.705 87.5789C269.187 86.7908 269.845 86.1382 270.668 85.6161C271.491 85.094 272.43 84.7024 273.479 84.4364C274.529 84.1753 275.593 84.0448 276.682 84.0448C278.535 84.0448 280.307 84.4063 281.998 85.1342C283.69 85.857 284.94 86.9263 285.743 88.3369L290.939 86.8259C290.296 85.5358 289.468 84.4213 288.464 83.4725C287.455 82.5288 286.341 81.7406 285.111 81.1182C283.881 80.4957 282.561 80.0288 281.155 79.7276C279.744 79.4264 278.334 79.2758 276.923 79.2758C275.071 79.2758 273.259 79.5168 271.486 79.9987C269.714 80.4806 268.133 81.1884 266.743 82.1121C265.352 83.0408 264.238 84.1753 263.389 85.5257C262.541 86.8761 262.119 88.3972 262.119 90.0889C262.119 92.3027 262.581 94.1149 263.51 95.5256C264.438 96.9362 265.613 98.0757 267.044 98.9392C268.474 99.8076 270.036 100.47 271.727 100.932C273.419 101.394 275.051 101.791 276.622 102.112C278.555 102.513 280.176 102.94 281.486 103.382C282.796 103.824 283.851 104.321 284.659 104.863C285.462 105.405 286.049 106.022 286.411 106.705C286.772 107.393 286.953 108.196 286.953 109.12C286.953 110.33 286.682 111.384 286.135 112.292C285.593 113.196 284.885 113.944 284.021 114.526C283.153 115.109 282.149 115.555 280.999 115.857C279.85 116.158 278.675 116.308 277.465 116.308C276.376 116.308 275.282 116.178 274.172 115.917C273.063 115.656 272.039 115.274 271.09 114.767C270.141 114.265 269.318 113.608 268.615 112.804C267.912 112.001 267.375 111.052 267.014 109.963L261.758 111.534C262.28 113.146 263.068 114.556 264.112 115.766C265.161 116.976 266.376 117.97 267.767 118.758C269.157 119.541 270.668 120.129 272.3 120.51C273.931 120.892 275.573 121.082 277.224 121.082C279.197 121.082 281.13 120.821 283.022 120.299C284.915 119.777 286.597 119.019 288.068 118.035C289.538 117.046 290.713 115.821 291.602 114.351C292.485 112.88 292.932 111.218 292.932 109.366C292.932 107.192 292.5 105.39 291.632 103.959C290.763 102.528 289.649 101.374 288.278 100.485H288.283ZM305.08 84.8982H318.494V120.365H324.171V84.8982H337.585V80.0037H305.08V84.8982ZM379.607 103.959C378.739 102.528 377.624 101.374 376.254 100.485C374.883 99.6018 373.332 98.894 371.6 98.3719C369.868 97.8498 368.116 97.403 366.344 97.0416C364.974 96.7605 363.664 96.4593 362.419 96.133C361.169 95.8117 360.064 95.4101 359.095 94.9232C358.127 94.4412 357.364 93.8338 356.801 93.1109C356.234 92.3881 355.953 91.4594 355.953 90.3299C355.953 89.2807 356.194 88.367 356.676 87.5789C357.158 86.7908 357.815 86.1382 358.639 85.6161C359.462 85.094 360.401 84.7024 361.45 84.4364C362.499 84.1753 363.563 84.0448 364.653 84.0448C366.505 84.0448 368.277 84.4063 369.969 85.1342C371.66 85.857 372.91 86.9263 373.714 88.3369L378.909 86.8259C378.267 85.5358 377.439 84.4213 376.435 83.4725C375.426 82.5288 374.311 81.7406 373.081 81.1182C371.851 80.4957 370.531 80.0288 369.125 79.7276C367.715 79.4264 366.304 79.2758 364.894 79.2758C363.041 79.2758 361.229 79.5168 359.457 79.9987C357.685 80.4806 356.104 81.1884 354.713 82.1121C353.322 83.0408 352.208 84.1753 351.36 85.5257C350.511 86.8761 350.09 88.3972 350.09 90.0889C350.09 92.3027 350.551 94.1149 351.48 95.5256C352.409 96.9362 353.583 98.0757 355.014 98.9392C356.445 99.8076 358.006 100.47 359.698 100.932C361.39 101.394 363.021 101.791 364.592 102.112C366.525 102.513 368.146 102.94 369.457 103.382C370.767 103.824 371.821 104.321 372.629 104.863C373.433 105.405 374.02 106.022 374.381 106.705C374.743 107.393 374.923 108.196 374.923 109.12C374.923 110.33 374.652 111.384 374.105 112.292C373.563 113.196 372.855 113.944 371.992 114.526C371.123 115.109 370.119 115.555 368.97 115.857C367.82 116.158 366.646 116.308 365.436 116.308C364.346 116.308 363.252 116.178 362.143 115.917C361.033 115.656 360.009 115.274 359.06 114.767C358.112 114.265 357.288 113.608 356.585 112.804C355.883 112.001 355.346 111.052 354.984 109.963L349.728 111.534C350.25 113.146 351.038 114.556 352.082 115.766C353.132 116.976 354.347 117.97 355.737 118.758C357.128 119.541 358.639 120.129 360.27 120.51C361.902 120.892 363.543 121.082 365.195 121.082C367.168 121.082 369.1 120.821 370.993 120.299C372.885 119.777 374.567 119.019 376.038 118.035C377.509 117.046 378.683 115.821 379.572 114.351C380.456 112.88 380.902 111.218 380.902 109.366C380.902 107.192 380.471 105.39 379.602 103.959H379.607ZM203.22 92.2977V92.1873C203.22 89.0046 202.09 86.1231 200.032 84.0649C197.396 81.4294 193.295 79.9786 188.476 79.9786H172.979V120.38H178.421V105.069H186.985L198.41 120.38H205.117L192.888 104.115C199.46 102.659 203.209 98.387 203.209 92.2977H203.22ZM178.431 100.074V85.084H188.144C194.143 85.084 197.723 87.7998 197.723 92.3529V92.4634C197.723 97.0868 193.943 100.074 188.089 100.074H178.431Z" fill="#B2AC9F"/>
</g>
</g>
</g>
</g>
</g>
</svg>
